<mxfile host="app.diagrams.net" modified="2023-11-25T15:25:12.758Z" agent="Mozilla/5.0 (Windows NT 10.0; Win64; x64) AppleWebKit/537.36 (KHTML, like Gecko) Chrome/119.0.0.0 Safari/537.36 Edg/119.0.0.0" etag="Lrx0UNB3Y_e7B7gjND6_" version="22.1.4" type="github">
  <diagram name="第 1 页" id="yxxtLZjnxe9j1lW8a8r0">
    <mxGraphModel dx="1054" dy="607" grid="1" gridSize="10" guides="1" tooltips="1" connect="1" arrows="1" fold="1" page="1" pageScale="1" pageWidth="3300" pageHeight="4681" math="0" shadow="0">
      <root>
        <mxCell id="0" />
        <mxCell id="1" parent="0" />
        <mxCell id="qTDh2ZvKY7jQ9mrS4ECN-1" value="B" style="swimlane;fontStyle=1;align=center;verticalAlign=top;childLayout=stackLayout;horizontal=1;startSize=26;horizontalStack=0;resizeParent=1;resizeParentMax=0;resizeLast=0;collapsible=1;marginBottom=0;whiteSpace=wrap;html=1;" vertex="1" parent="1">
          <mxGeometry x="240" y="280" width="80" height="34" as="geometry" />
        </mxCell>
        <mxCell id="qTDh2ZvKY7jQ9mrS4ECN-3" value="" style="line;strokeWidth=1;fillColor=none;align=left;verticalAlign=middle;spacingTop=-1;spacingLeft=3;spacingRight=3;rotatable=0;labelPosition=right;points=[];portConstraint=eastwest;strokeColor=inherit;" vertex="1" parent="qTDh2ZvKY7jQ9mrS4ECN-1">
          <mxGeometry y="26" width="80" height="8" as="geometry" />
        </mxCell>
        <mxCell id="qTDh2ZvKY7jQ9mrS4ECN-17" value="C" style="swimlane;fontStyle=1;align=center;verticalAlign=top;childLayout=stackLayout;horizontal=1;startSize=26;horizontalStack=0;resizeParent=1;resizeParentMax=0;resizeLast=0;collapsible=1;marginBottom=0;whiteSpace=wrap;html=1;" vertex="1" parent="1">
          <mxGeometry x="560" y="280" width="80" height="34" as="geometry" />
        </mxCell>
        <mxCell id="qTDh2ZvKY7jQ9mrS4ECN-18" value="" style="line;strokeWidth=1;fillColor=none;align=left;verticalAlign=middle;spacingTop=-1;spacingLeft=3;spacingRight=3;rotatable=0;labelPosition=right;points=[];portConstraint=eastwest;strokeColor=inherit;" vertex="1" parent="qTDh2ZvKY7jQ9mrS4ECN-17">
          <mxGeometry y="26" width="80" height="8" as="geometry" />
        </mxCell>
        <mxCell id="qTDh2ZvKY7jQ9mrS4ECN-26" value="" style="edgeStyle=orthogonalEdgeStyle;rounded=0;orthogonalLoop=1;jettySize=auto;html=1;endArrow=none;endFill=0;startArrow=diamond;startFill=0;" edge="1" parent="1" source="qTDh2ZvKY7jQ9mrS4ECN-19" target="qTDh2ZvKY7jQ9mrS4ECN-24">
          <mxGeometry relative="1" as="geometry" />
        </mxCell>
        <mxCell id="qTDh2ZvKY7jQ9mrS4ECN-27" value="" style="edgeStyle=orthogonalEdgeStyle;rounded=0;orthogonalLoop=1;jettySize=auto;html=1;entryX=1;entryY=0.5;entryDx=0;entryDy=0;endArrow=none;endFill=0;startArrow=diamond;startFill=0;" edge="1" parent="1" source="qTDh2ZvKY7jQ9mrS4ECN-19" target="qTDh2ZvKY7jQ9mrS4ECN-1">
          <mxGeometry relative="1" as="geometry">
            <Array as="points" />
          </mxGeometry>
        </mxCell>
        <mxCell id="qTDh2ZvKY7jQ9mrS4ECN-19" value="A" style="swimlane;fontStyle=1;align=center;verticalAlign=top;childLayout=stackLayout;horizontal=1;startSize=26;horizontalStack=0;resizeParent=1;resizeParentMax=0;resizeLast=0;collapsible=1;marginBottom=0;whiteSpace=wrap;html=1;" vertex="1" parent="1">
          <mxGeometry x="400" y="280" width="80" height="34" as="geometry" />
        </mxCell>
        <mxCell id="qTDh2ZvKY7jQ9mrS4ECN-20" value="" style="line;strokeWidth=1;fillColor=none;align=left;verticalAlign=middle;spacingTop=-1;spacingLeft=3;spacingRight=3;rotatable=0;labelPosition=right;points=[];portConstraint=eastwest;strokeColor=inherit;" vertex="1" parent="qTDh2ZvKY7jQ9mrS4ECN-19">
          <mxGeometry y="26" width="80" height="8" as="geometry" />
        </mxCell>
        <mxCell id="qTDh2ZvKY7jQ9mrS4ECN-24" value="A" style="swimlane;fontStyle=1;align=center;verticalAlign=top;childLayout=stackLayout;horizontal=1;startSize=26;horizontalStack=0;resizeParent=1;resizeParentMax=0;resizeLast=0;collapsible=1;marginBottom=0;whiteSpace=wrap;html=1;" vertex="1" parent="1">
          <mxGeometry x="560" y="280" width="80" height="34" as="geometry" />
        </mxCell>
        <mxCell id="qTDh2ZvKY7jQ9mrS4ECN-25" value="" style="line;strokeWidth=1;fillColor=none;align=left;verticalAlign=middle;spacingTop=-1;spacingLeft=3;spacingRight=3;rotatable=0;labelPosition=right;points=[];portConstraint=eastwest;strokeColor=inherit;" vertex="1" parent="qTDh2ZvKY7jQ9mrS4ECN-24">
          <mxGeometry y="26" width="80" height="8" as="geometry" />
        </mxCell>
        <mxCell id="qTDh2ZvKY7jQ9mrS4ECN-29" value="1..*" style="text;html=1;align=center;verticalAlign=middle;resizable=0;points=[];autosize=1;strokeColor=none;fillColor=none;" vertex="1" parent="1">
          <mxGeometry x="520" y="278" width="40" height="30" as="geometry" />
        </mxCell>
        <mxCell id="qTDh2ZvKY7jQ9mrS4ECN-31" value="1" style="text;html=1;align=center;verticalAlign=middle;resizable=0;points=[];autosize=1;strokeColor=none;fillColor=none;" vertex="1" parent="1">
          <mxGeometry x="485" y="278" width="30" height="30" as="geometry" />
        </mxCell>
        <mxCell id="qTDh2ZvKY7jQ9mrS4ECN-32" value="1" style="text;html=1;align=center;verticalAlign=middle;resizable=0;points=[];autosize=1;strokeColor=none;fillColor=none;" vertex="1" parent="1">
          <mxGeometry x="365" y="278" width="30" height="30" as="geometry" />
        </mxCell>
        <mxCell id="qTDh2ZvKY7jQ9mrS4ECN-60" value="" style="edgeStyle=orthogonalEdgeStyle;rounded=0;orthogonalLoop=1;jettySize=auto;html=1;entryX=0.5;entryY=0;entryDx=0;entryDy=0;endArrow=none;endFill=0;" edge="1" parent="1" source="qTDh2ZvKY7jQ9mrS4ECN-33" target="qTDh2ZvKY7jQ9mrS4ECN-42">
          <mxGeometry relative="1" as="geometry">
            <Array as="points">
              <mxPoint x="485" y="650" />
              <mxPoint x="485" y="650" />
            </Array>
          </mxGeometry>
        </mxCell>
        <mxCell id="qTDh2ZvKY7jQ9mrS4ECN-33" value="教师" style="swimlane;fontStyle=1;align=center;verticalAlign=top;childLayout=stackLayout;horizontal=1;startSize=26;horizontalStack=0;resizeParent=1;resizeParentMax=0;resizeLast=0;collapsible=1;marginBottom=0;whiteSpace=wrap;html=1;" vertex="1" parent="1">
          <mxGeometry x="370" y="490" width="230" height="140" as="geometry" />
        </mxCell>
        <mxCell id="qTDh2ZvKY7jQ9mrS4ECN-34" value="+ id: int" style="text;strokeColor=none;fillColor=none;align=left;verticalAlign=top;spacingLeft=4;spacingRight=4;overflow=hidden;rotatable=0;points=[[0,0.5],[1,0.5]];portConstraint=eastwest;whiteSpace=wrap;html=1;" vertex="1" parent="qTDh2ZvKY7jQ9mrS4ECN-33">
          <mxGeometry y="26" width="230" height="24" as="geometry" />
        </mxCell>
        <mxCell id="qTDh2ZvKY7jQ9mrS4ECN-35" value="" style="line;strokeWidth=1;fillColor=none;align=left;verticalAlign=middle;spacingTop=-1;spacingLeft=3;spacingRight=3;rotatable=0;labelPosition=right;points=[];portConstraint=eastwest;strokeColor=inherit;" vertex="1" parent="qTDh2ZvKY7jQ9mrS4ECN-33">
          <mxGeometry y="50" width="230" height="8" as="geometry" />
        </mxCell>
        <mxCell id="qTDh2ZvKY7jQ9mrS4ECN-36" value="+ 编写入库习题和答案(): boolean&lt;br&gt;- 组合习题成作业(): boolean&lt;br&gt;- 发布作业(): boolean&lt;br&gt;- 公布答案(): boolean&lt;br&gt;- 批改作业(): boolean" style="text;strokeColor=none;fillColor=none;align=left;verticalAlign=top;spacingLeft=4;spacingRight=4;overflow=hidden;rotatable=0;points=[[0,0.5],[1,0.5]];portConstraint=eastwest;whiteSpace=wrap;html=1;" vertex="1" parent="qTDh2ZvKY7jQ9mrS4ECN-33">
          <mxGeometry y="58" width="230" height="82" as="geometry" />
        </mxCell>
        <mxCell id="qTDh2ZvKY7jQ9mrS4ECN-65" value="" style="rounded=0;orthogonalLoop=1;jettySize=auto;html=1;endArrow=none;endFill=0;" edge="1" parent="1" source="qTDh2ZvKY7jQ9mrS4ECN-38">
          <mxGeometry relative="1" as="geometry">
            <mxPoint x="340" y="820" as="targetPoint" />
          </mxGeometry>
        </mxCell>
        <mxCell id="qTDh2ZvKY7jQ9mrS4ECN-66" value="" style="rounded=0;orthogonalLoop=1;jettySize=auto;html=1;entryX=0.355;entryY=1.119;entryDx=0;entryDy=0;entryPerimeter=0;endArrow=none;endFill=0;" edge="1" parent="1" source="qTDh2ZvKY7jQ9mrS4ECN-38" target="qTDh2ZvKY7jQ9mrS4ECN-56">
          <mxGeometry relative="1" as="geometry" />
        </mxCell>
        <mxCell id="qTDh2ZvKY7jQ9mrS4ECN-38" value="学生" style="swimlane;fontStyle=1;align=center;verticalAlign=top;childLayout=stackLayout;horizontal=1;startSize=26;horizontalStack=0;resizeParent=1;resizeParentMax=0;resizeLast=0;collapsible=1;marginBottom=0;whiteSpace=wrap;html=1;" vertex="1" parent="1">
          <mxGeometry x="345" y="930" width="230" height="120" as="geometry" />
        </mxCell>
        <mxCell id="qTDh2ZvKY7jQ9mrS4ECN-39" value="+ id: int" style="text;strokeColor=none;fillColor=none;align=left;verticalAlign=top;spacingLeft=4;spacingRight=4;overflow=hidden;rotatable=0;points=[[0,0.5],[1,0.5]];portConstraint=eastwest;whiteSpace=wrap;html=1;" vertex="1" parent="qTDh2ZvKY7jQ9mrS4ECN-38">
          <mxGeometry y="26" width="230" height="24" as="geometry" />
        </mxCell>
        <mxCell id="qTDh2ZvKY7jQ9mrS4ECN-40" value="" style="line;strokeWidth=1;fillColor=none;align=left;verticalAlign=middle;spacingTop=-1;spacingLeft=3;spacingRight=3;rotatable=0;labelPosition=right;points=[];portConstraint=eastwest;strokeColor=inherit;" vertex="1" parent="qTDh2ZvKY7jQ9mrS4ECN-38">
          <mxGeometry y="50" width="230" height="8" as="geometry" />
        </mxCell>
        <mxCell id="qTDh2ZvKY7jQ9mrS4ECN-41" value="- 写作业(): boolean&lt;br&gt;- 写练习(): boolean&lt;br&gt;- 查看参考答案(): boolean&lt;br&gt;&lt;div&gt;&lt;br&gt;&lt;/div&gt;&lt;div&gt;&lt;br&gt;&lt;/div&gt;" style="text;strokeColor=none;fillColor=none;align=left;verticalAlign=top;spacingLeft=4;spacingRight=4;overflow=hidden;rotatable=0;points=[[0,0.5],[1,0.5]];portConstraint=eastwest;whiteSpace=wrap;html=1;" vertex="1" parent="qTDh2ZvKY7jQ9mrS4ECN-38">
          <mxGeometry y="58" width="230" height="62" as="geometry" />
        </mxCell>
        <mxCell id="qTDh2ZvKY7jQ9mrS4ECN-57" value="" style="rounded=0;orthogonalLoop=1;jettySize=auto;html=1;entryX=1.009;entryY=0.179;entryDx=0;entryDy=0;entryPerimeter=0;endArrow=none;endFill=0;" edge="1" parent="1" source="qTDh2ZvKY7jQ9mrS4ECN-42" target="qTDh2ZvKY7jQ9mrS4ECN-47">
          <mxGeometry relative="1" as="geometry" />
        </mxCell>
        <mxCell id="qTDh2ZvKY7jQ9mrS4ECN-42" value="习题" style="swimlane;fontStyle=1;align=center;verticalAlign=top;childLayout=stackLayout;horizontal=1;startSize=26;horizontalStack=0;resizeParent=1;resizeParentMax=0;resizeLast=0;collapsible=1;marginBottom=0;whiteSpace=wrap;html=1;" vertex="1" parent="1">
          <mxGeometry x="370" y="660" width="230" height="58" as="geometry" />
        </mxCell>
        <mxCell id="qTDh2ZvKY7jQ9mrS4ECN-43" value="+ id: int" style="text;strokeColor=none;fillColor=none;align=left;verticalAlign=top;spacingLeft=4;spacingRight=4;overflow=hidden;rotatable=0;points=[[0,0.5],[1,0.5]];portConstraint=eastwest;whiteSpace=wrap;html=1;" vertex="1" parent="qTDh2ZvKY7jQ9mrS4ECN-42">
          <mxGeometry y="26" width="230" height="24" as="geometry" />
        </mxCell>
        <mxCell id="qTDh2ZvKY7jQ9mrS4ECN-44" value="" style="line;strokeWidth=1;fillColor=none;align=left;verticalAlign=middle;spacingTop=-1;spacingLeft=3;spacingRight=3;rotatable=0;labelPosition=right;points=[];portConstraint=eastwest;strokeColor=inherit;" vertex="1" parent="qTDh2ZvKY7jQ9mrS4ECN-42">
          <mxGeometry y="50" width="230" height="8" as="geometry" />
        </mxCell>
        <mxCell id="qTDh2ZvKY7jQ9mrS4ECN-46" value="习题答案" style="swimlane;fontStyle=1;align=center;verticalAlign=top;childLayout=stackLayout;horizontal=1;startSize=26;horizontalStack=0;resizeParent=1;resizeParentMax=0;resizeLast=0;collapsible=1;marginBottom=0;whiteSpace=wrap;html=1;" vertex="1" parent="1">
          <mxGeometry x="100" y="660" width="230" height="58" as="geometry" />
        </mxCell>
        <mxCell id="qTDh2ZvKY7jQ9mrS4ECN-47" value="+ id: int" style="text;strokeColor=none;fillColor=none;align=left;verticalAlign=top;spacingLeft=4;spacingRight=4;overflow=hidden;rotatable=0;points=[[0,0.5],[1,0.5]];portConstraint=eastwest;whiteSpace=wrap;html=1;" vertex="1" parent="qTDh2ZvKY7jQ9mrS4ECN-46">
          <mxGeometry y="26" width="230" height="24" as="geometry" />
        </mxCell>
        <mxCell id="qTDh2ZvKY7jQ9mrS4ECN-48" value="" style="line;strokeWidth=1;fillColor=none;align=left;verticalAlign=middle;spacingTop=-1;spacingLeft=3;spacingRight=3;rotatable=0;labelPosition=right;points=[];portConstraint=eastwest;strokeColor=inherit;" vertex="1" parent="qTDh2ZvKY7jQ9mrS4ECN-46">
          <mxGeometry y="50" width="230" height="8" as="geometry" />
        </mxCell>
        <mxCell id="qTDh2ZvKY7jQ9mrS4ECN-63" value="" style="rounded=0;orthogonalLoop=1;jettySize=auto;html=1;endArrow=none;endFill=0;startArrow=diamond;startFill=0;" edge="1" parent="1" source="qTDh2ZvKY7jQ9mrS4ECN-49">
          <mxGeometry relative="1" as="geometry">
            <mxPoint x="420" y="720" as="targetPoint" />
          </mxGeometry>
        </mxCell>
        <mxCell id="qTDh2ZvKY7jQ9mrS4ECN-49" value="练习" style="swimlane;fontStyle=1;align=center;verticalAlign=top;childLayout=stackLayout;horizontal=1;startSize=26;horizontalStack=0;resizeParent=1;resizeParentMax=0;resizeLast=0;collapsible=1;marginBottom=0;whiteSpace=wrap;html=1;" vertex="1" parent="1">
          <mxGeometry x="210" y="783" width="230" height="34" as="geometry" />
        </mxCell>
        <mxCell id="qTDh2ZvKY7jQ9mrS4ECN-51" value="" style="line;strokeWidth=1;fillColor=none;align=left;verticalAlign=middle;spacingTop=-1;spacingLeft=3;spacingRight=3;rotatable=0;labelPosition=right;points=[];portConstraint=eastwest;strokeColor=inherit;" vertex="1" parent="qTDh2ZvKY7jQ9mrS4ECN-49">
          <mxGeometry y="26" width="230" height="8" as="geometry" />
        </mxCell>
        <mxCell id="qTDh2ZvKY7jQ9mrS4ECN-64" value="" style="rounded=0;orthogonalLoop=1;jettySize=auto;html=1;endArrow=none;endFill=0;startArrow=diamond;startFill=0;" edge="1" parent="1" source="qTDh2ZvKY7jQ9mrS4ECN-53">
          <mxGeometry relative="1" as="geometry">
            <mxPoint x="520" y="720" as="targetPoint" />
          </mxGeometry>
        </mxCell>
        <mxCell id="qTDh2ZvKY7jQ9mrS4ECN-53" value="作业" style="swimlane;fontStyle=1;align=center;verticalAlign=top;childLayout=stackLayout;horizontal=1;startSize=26;horizontalStack=0;resizeParent=1;resizeParentMax=0;resizeLast=0;collapsible=1;marginBottom=0;whiteSpace=wrap;html=1;" vertex="1" parent="1">
          <mxGeometry x="510" y="770" width="230" height="100" as="geometry" />
        </mxCell>
        <mxCell id="qTDh2ZvKY7jQ9mrS4ECN-54" value="+ id: int&lt;br style=&quot;border-color: var(--border-color);&quot;&gt;+ 习题列表：List&amp;lt;习题&amp;gt;&lt;br&gt;+ 截止数据：date" style="text;strokeColor=none;fillColor=none;align=left;verticalAlign=top;spacingLeft=4;spacingRight=4;overflow=hidden;rotatable=0;points=[[0,0.5],[1,0.5]];portConstraint=eastwest;whiteSpace=wrap;html=1;" vertex="1" parent="qTDh2ZvKY7jQ9mrS4ECN-53">
          <mxGeometry y="26" width="230" height="44" as="geometry" />
        </mxCell>
        <mxCell id="qTDh2ZvKY7jQ9mrS4ECN-55" value="" style="line;strokeWidth=1;fillColor=none;align=left;verticalAlign=middle;spacingTop=-1;spacingLeft=3;spacingRight=3;rotatable=0;labelPosition=right;points=[];portConstraint=eastwest;strokeColor=inherit;" vertex="1" parent="qTDh2ZvKY7jQ9mrS4ECN-53">
          <mxGeometry y="70" width="230" height="8" as="geometry" />
        </mxCell>
        <mxCell id="qTDh2ZvKY7jQ9mrS4ECN-56" value="- 截止(): boolean" style="text;strokeColor=none;fillColor=none;align=left;verticalAlign=top;spacingLeft=4;spacingRight=4;overflow=hidden;rotatable=0;points=[[0,0.5],[1,0.5]];portConstraint=eastwest;whiteSpace=wrap;html=1;" vertex="1" parent="qTDh2ZvKY7jQ9mrS4ECN-53">
          <mxGeometry y="78" width="230" height="22" as="geometry" />
        </mxCell>
        <mxCell id="qTDh2ZvKY7jQ9mrS4ECN-58" value="1" style="text;html=1;align=center;verticalAlign=middle;resizable=0;points=[];autosize=1;strokeColor=none;fillColor=none;" vertex="1" parent="1">
          <mxGeometry x="325" y="668" width="30" height="30" as="geometry" />
        </mxCell>
        <mxCell id="qTDh2ZvKY7jQ9mrS4ECN-59" value="1" style="text;html=1;align=center;verticalAlign=middle;resizable=0;points=[];autosize=1;strokeColor=none;fillColor=none;" vertex="1" parent="1">
          <mxGeometry x="345" y="668" width="30" height="30" as="geometry" />
        </mxCell>
        <mxCell id="qTDh2ZvKY7jQ9mrS4ECN-62" value="..*" style="text;html=1;align=center;verticalAlign=middle;resizable=0;points=[];autosize=1;strokeColor=none;fillColor=none;" vertex="1" parent="1">
          <mxGeometry x="480" y="638" width="30" height="30" as="geometry" />
        </mxCell>
        <mxCell id="qTDh2ZvKY7jQ9mrS4ECN-67" value="..*" style="text;html=1;align=center;verticalAlign=middle;resizable=0;points=[];autosize=1;strokeColor=none;fillColor=none;" vertex="1" parent="1">
          <mxGeometry x="345" y="808" width="30" height="30" as="geometry" />
        </mxCell>
        <mxCell id="qTDh2ZvKY7jQ9mrS4ECN-68" value="..*" style="text;html=1;align=center;verticalAlign=middle;resizable=0;points=[];autosize=1;strokeColor=none;fillColor=none;" vertex="1" parent="1">
          <mxGeometry x="405" y="898" width="30" height="30" as="geometry" />
        </mxCell>
        <mxCell id="qTDh2ZvKY7jQ9mrS4ECN-69" value="..*" style="text;html=1;align=center;verticalAlign=middle;resizable=0;points=[];autosize=1;strokeColor=none;fillColor=none;" vertex="1" parent="1">
          <mxGeometry x="595" y="868" width="30" height="30" as="geometry" />
        </mxCell>
        <mxCell id="qTDh2ZvKY7jQ9mrS4ECN-70" value="..*" style="text;html=1;align=center;verticalAlign=middle;resizable=0;points=[];autosize=1;strokeColor=none;fillColor=none;" vertex="1" parent="1">
          <mxGeometry x="535" y="908" width="30" height="30" as="geometry" />
        </mxCell>
        <mxCell id="qTDh2ZvKY7jQ9mrS4ECN-71" value="..*" style="text;html=1;align=center;verticalAlign=middle;resizable=0;points=[];autosize=1;strokeColor=none;fillColor=none;" vertex="1" parent="1">
          <mxGeometry x="475" y="618" width="30" height="30" as="geometry" />
        </mxCell>
        <mxCell id="qTDh2ZvKY7jQ9mrS4ECN-81" value=":Web Interface" style="shape=umlLifeline;perimeter=lifelinePerimeter;whiteSpace=wrap;html=1;container=1;dropTarget=0;collapsible=0;recursiveResize=0;outlineConnect=0;portConstraint=eastwest;newEdgeStyle={&quot;curved&quot;:0,&quot;rounded&quot;:0};" vertex="1" parent="1">
          <mxGeometry x="310" y="1290" width="100" height="300" as="geometry" />
        </mxCell>
        <mxCell id="qTDh2ZvKY7jQ9mrS4ECN-83" value="" style="html=1;points=[[0,0,0,0,5],[0,1,0,0,-5],[1,0,0,0,5],[1,1,0,0,-5]];perimeter=orthogonalPerimeter;outlineConnect=0;targetShapes=umlLifeline;portConstraint=eastwest;newEdgeStyle={&quot;curved&quot;:0,&quot;rounded&quot;:0};" vertex="1" parent="qTDh2ZvKY7jQ9mrS4ECN-81">
          <mxGeometry x="45" y="70" width="10" height="180" as="geometry" />
        </mxCell>
        <mxCell id="qTDh2ZvKY7jQ9mrS4ECN-82" value="" style="shape=umlLifeline;perimeter=lifelinePerimeter;whiteSpace=wrap;html=1;container=1;dropTarget=0;collapsible=0;recursiveResize=0;outlineConnect=0;portConstraint=eastwest;newEdgeStyle={&quot;curved&quot;:0,&quot;rounded&quot;:0};participant=umlActor;" vertex="1" parent="1">
          <mxGeometry x="140" y="1290" width="20" height="300" as="geometry" />
        </mxCell>
        <mxCell id="qTDh2ZvKY7jQ9mrS4ECN-86" value="" style="html=1;points=[[0,0,0,0,5],[0,1,0,0,-5],[1,0,0,0,5],[1,1,0,0,-5]];perimeter=orthogonalPerimeter;outlineConnect=0;targetShapes=umlLifeline;portConstraint=eastwest;newEdgeStyle={&quot;curved&quot;:0,&quot;rounded&quot;:0};" vertex="1" parent="qTDh2ZvKY7jQ9mrS4ECN-82">
          <mxGeometry x="5" y="60" width="10" height="30" as="geometry" />
        </mxCell>
        <mxCell id="qTDh2ZvKY7jQ9mrS4ECN-84" value=":Database Wrapper" style="shape=umlLifeline;perimeter=lifelinePerimeter;whiteSpace=wrap;html=1;container=1;dropTarget=0;collapsible=0;recursiveResize=0;outlineConnect=0;portConstraint=eastwest;newEdgeStyle={&quot;curved&quot;:0,&quot;rounded&quot;:0};" vertex="1" parent="1">
          <mxGeometry x="445" y="1290" width="100" height="300" as="geometry" />
        </mxCell>
        <mxCell id="qTDh2ZvKY7jQ9mrS4ECN-90" value="" style="html=1;points=[[0,0,0,0,5],[0,1,0,0,-5],[1,0,0,0,5],[1,1,0,0,-5]];perimeter=orthogonalPerimeter;outlineConnect=0;targetShapes=umlLifeline;portConstraint=eastwest;newEdgeStyle={&quot;curved&quot;:0,&quot;rounded&quot;:0};" vertex="1" parent="qTDh2ZvKY7jQ9mrS4ECN-84">
          <mxGeometry x="45" y="90" width="10" height="60" as="geometry" />
        </mxCell>
        <mxCell id="qTDh2ZvKY7jQ9mrS4ECN-85" value=":Information&lt;br&gt;" style="shape=umlLifeline;perimeter=lifelinePerimeter;whiteSpace=wrap;html=1;container=1;dropTarget=0;collapsible=0;recursiveResize=0;outlineConnect=0;portConstraint=eastwest;newEdgeStyle={&quot;curved&quot;:0,&quot;rounded&quot;:0};" vertex="1" parent="1">
          <mxGeometry x="590" y="1290" width="100" height="300" as="geometry" />
        </mxCell>
        <mxCell id="qTDh2ZvKY7jQ9mrS4ECN-93" value="" style="html=1;points=[[0,0,0,0,5],[0,1,0,0,-5],[1,0,0,0,5],[1,1,0,0,-5]];perimeter=orthogonalPerimeter;outlineConnect=0;targetShapes=umlLifeline;portConstraint=eastwest;newEdgeStyle={&quot;curved&quot;:0,&quot;rounded&quot;:0};" vertex="1" parent="qTDh2ZvKY7jQ9mrS4ECN-85">
          <mxGeometry x="45" y="98" width="10" height="50" as="geometry" />
        </mxCell>
        <mxCell id="qTDh2ZvKY7jQ9mrS4ECN-87" value="" style="edgeStyle=orthogonalEdgeStyle;rounded=0;orthogonalLoop=1;jettySize=auto;html=1;curved=0;entryX=0;entryY=0;entryDx=0;entryDy=5;entryPerimeter=0;" edge="1" parent="1" source="qTDh2ZvKY7jQ9mrS4ECN-86" target="qTDh2ZvKY7jQ9mrS4ECN-83">
          <mxGeometry relative="1" as="geometry">
            <mxPoint x="290" y="1365" as="targetPoint" />
          </mxGeometry>
        </mxCell>
        <mxCell id="qTDh2ZvKY7jQ9mrS4ECN-88" value="1:输入查询请求" style="text;html=1;align=center;verticalAlign=middle;resizable=0;points=[];autosize=1;strokeColor=none;fillColor=none;" vertex="1" parent="1">
          <mxGeometry x="190" y="1340" width="110" height="30" as="geometry" />
        </mxCell>
        <mxCell id="qTDh2ZvKY7jQ9mrS4ECN-89" value="" style="edgeStyle=orthogonalEdgeStyle;rounded=0;orthogonalLoop=1;jettySize=auto;html=1;curved=0;" edge="1" parent="1" source="qTDh2ZvKY7jQ9mrS4ECN-83" target="qTDh2ZvKY7jQ9mrS4ECN-90">
          <mxGeometry relative="1" as="geometry">
            <mxPoint x="440" y="1450" as="targetPoint" />
            <Array as="points">
              <mxPoint x="460" y="1380" />
              <mxPoint x="460" y="1380" />
            </Array>
          </mxGeometry>
        </mxCell>
        <mxCell id="qTDh2ZvKY7jQ9mrS4ECN-92" value="2：获取航班数据" style="text;html=1;align=center;verticalAlign=middle;resizable=0;points=[];autosize=1;strokeColor=none;fillColor=none;" vertex="1" parent="1">
          <mxGeometry x="365" y="1358" width="110" height="30" as="geometry" />
        </mxCell>
        <mxCell id="qTDh2ZvKY7jQ9mrS4ECN-94" value="" style="edgeStyle=orthogonalEdgeStyle;rounded=0;orthogonalLoop=1;jettySize=auto;html=1;curved=0;" edge="1" parent="1" source="qTDh2ZvKY7jQ9mrS4ECN-90" target="qTDh2ZvKY7jQ9mrS4ECN-85">
          <mxGeometry relative="1" as="geometry">
            <mxPoint x="580" y="1420" as="targetPoint" />
            <Array as="points">
              <mxPoint x="560" y="1400" />
              <mxPoint x="560" y="1400" />
            </Array>
          </mxGeometry>
        </mxCell>
        <mxCell id="qTDh2ZvKY7jQ9mrS4ECN-95" value="3：加载航班数据" style="text;html=1;align=center;verticalAlign=middle;resizable=0;points=[];autosize=1;strokeColor=none;fillColor=none;" vertex="1" parent="1">
          <mxGeometry x="505" y="1378" width="110" height="30" as="geometry" />
        </mxCell>
        <mxCell id="qTDh2ZvKY7jQ9mrS4ECN-96" value="" style="edgeStyle=orthogonalEdgeStyle;rounded=0;orthogonalLoop=1;jettySize=auto;html=1;curved=0;dashed=1;" edge="1" parent="1" source="qTDh2ZvKY7jQ9mrS4ECN-93" target="qTDh2ZvKY7jQ9mrS4ECN-84">
          <mxGeometry relative="1" as="geometry">
            <Array as="points">
              <mxPoint x="580" y="1430" />
              <mxPoint x="580" y="1430" />
            </Array>
          </mxGeometry>
        </mxCell>
        <mxCell id="qTDh2ZvKY7jQ9mrS4ECN-97" value="4：返回航班数据" style="text;html=1;align=center;verticalAlign=middle;resizable=0;points=[];autosize=1;strokeColor=none;fillColor=none;" vertex="1" parent="1">
          <mxGeometry x="505" y="1425" width="110" height="30" as="geometry" />
        </mxCell>
        <mxCell id="qTDh2ZvKY7jQ9mrS4ECN-121" value="" style="edgeStyle=orthogonalEdgeStyle;rounded=0;orthogonalLoop=1;jettySize=auto;html=1;endArrow=none;endFill=0;" edge="1" parent="1">
          <mxGeometry relative="1" as="geometry">
            <mxPoint x="730" y="1954.62" as="sourcePoint" />
            <mxPoint x="850" y="1954.62" as="targetPoint" />
          </mxGeometry>
        </mxCell>
        <mxCell id="qTDh2ZvKY7jQ9mrS4ECN-122" value="" style="edgeStyle=orthogonalEdgeStyle;rounded=0;orthogonalLoop=1;jettySize=auto;html=1;" edge="1" parent="1">
          <mxGeometry relative="1" as="geometry">
            <mxPoint x="459.9999999999998" y="1922" as="sourcePoint" />
            <mxPoint x="579.9999999999998" y="1922" as="targetPoint" />
          </mxGeometry>
        </mxCell>
        <mxCell id="qTDh2ZvKY7jQ9mrS4ECN-123" value="用户" style="shape=umlActor;verticalLabelPosition=bottom;verticalAlign=top;html=1;outlineConnect=0;" vertex="1" parent="1">
          <mxGeometry x="425" y="1913" width="30" height="60" as="geometry" />
        </mxCell>
        <mxCell id="qTDh2ZvKY7jQ9mrS4ECN-124" value="" style="edgeStyle=orthogonalEdgeStyle;rounded=0;orthogonalLoop=1;jettySize=auto;html=1;entryX=-0.02;entryY=0.049;entryDx=0;entryDy=0;entryPerimeter=0;" edge="1" parent="1">
          <mxGeometry relative="1" as="geometry">
            <mxPoint x="735" y="1943.004" as="sourcePoint" />
            <mxPoint x="850.5999999999999" y="1943.116" as="targetPoint" />
          </mxGeometry>
        </mxCell>
        <mxCell id="qTDh2ZvKY7jQ9mrS4ECN-125" value="" style="edgeStyle=orthogonalEdgeStyle;rounded=0;orthogonalLoop=1;jettySize=auto;html=1;dashed=1;" edge="1" parent="1" target="qTDh2ZvKY7jQ9mrS4ECN-123">
          <mxGeometry relative="1" as="geometry">
            <mxPoint x="470" y="1950" as="targetPoint" />
            <Array as="points">
              <mxPoint x="530" y="1950" />
              <mxPoint x="530" y="1950" />
            </Array>
            <mxPoint x="580" y="1950.0526315789475" as="sourcePoint" />
          </mxGeometry>
        </mxCell>
        <mxCell id="qTDh2ZvKY7jQ9mrS4ECN-127" value="1、输入航班信息" style="text;html=1;align=center;verticalAlign=middle;resizable=0;points=[];autosize=1;strokeColor=none;fillColor=none;" vertex="1" parent="1">
          <mxGeometry x="465" y="1900" width="110" height="30" as="geometry" />
        </mxCell>
        <mxCell id="qTDh2ZvKY7jQ9mrS4ECN-134" value="2、生成订单请求" style="text;html=1;align=center;verticalAlign=middle;resizable=0;points=[];autosize=1;strokeColor=none;fillColor=none;" vertex="1" parent="1">
          <mxGeometry x="735" y="1913" width="110" height="30" as="geometry" />
        </mxCell>
        <mxCell id="qTDh2ZvKY7jQ9mrS4ECN-135" value="" style="edgeStyle=orthogonalEdgeStyle;rounded=0;orthogonalLoop=1;jettySize=auto;html=1;endArrow=none;endFill=0;" edge="1" parent="1">
          <mxGeometry relative="1" as="geometry">
            <mxPoint x="460" y="1941.62" as="sourcePoint" />
            <mxPoint x="580" y="1941.62" as="targetPoint" />
          </mxGeometry>
        </mxCell>
        <mxCell id="qTDh2ZvKY7jQ9mrS4ECN-137" value="" style="edgeStyle=orthogonalEdgeStyle;rounded=0;orthogonalLoop=1;jettySize=auto;html=1;dashed=1;" edge="1" parent="1">
          <mxGeometry relative="1" as="geometry">
            <mxPoint x="855" y="1963" as="sourcePoint" />
            <mxPoint x="735" y="1963" as="targetPoint" />
            <Array as="points">
              <mxPoint x="805" y="1963" />
              <mxPoint x="805" y="1963" />
            </Array>
          </mxGeometry>
        </mxCell>
        <mxCell id="qTDh2ZvKY7jQ9mrS4ECN-140" value="7、返回结果" style="text;html=1;align=center;verticalAlign=middle;resizable=0;points=[];autosize=1;strokeColor=none;fillColor=none;" vertex="1" parent="1">
          <mxGeometry x="740" y="1960" width="90" height="30" as="geometry" />
        </mxCell>
        <mxCell id="qTDh2ZvKY7jQ9mrS4ECN-150" value="" style="edgeStyle=orthogonalEdgeStyle;rounded=0;orthogonalLoop=1;jettySize=auto;html=1;endArrow=none;endFill=0;" edge="1" parent="1" source="qTDh2ZvKY7jQ9mrS4ECN-145">
          <mxGeometry relative="1" as="geometry">
            <mxPoint x="935" y="1833" as="targetPoint" />
          </mxGeometry>
        </mxCell>
        <mxCell id="qTDh2ZvKY7jQ9mrS4ECN-145" value=":Database Wrapper" style="swimlane;whiteSpace=wrap;html=1;startSize=23;" vertex="1" collapsed="1" parent="1">
          <mxGeometry x="860" y="1913" width="150" height="60" as="geometry">
            <mxRectangle x="1640" y="2340" width="120" height="50" as="alternateBounds" />
          </mxGeometry>
        </mxCell>
        <mxCell id="qTDh2ZvKY7jQ9mrS4ECN-147" value=":Web Interface" style="swimlane;whiteSpace=wrap;html=1;startSize=23;" vertex="1" collapsed="1" parent="1">
          <mxGeometry x="580" y="1913" width="150" height="60" as="geometry">
            <mxRectangle x="1640" y="2340" width="120" height="50" as="alternateBounds" />
          </mxGeometry>
        </mxCell>
        <mxCell id="qTDh2ZvKY7jQ9mrS4ECN-151" value="" style="edgeStyle=orthogonalEdgeStyle;rounded=0;orthogonalLoop=1;jettySize=auto;html=1;entryX=0.5;entryY=1;entryDx=0;entryDy=0;endArrow=none;endFill=0;" edge="1" parent="1" source="qTDh2ZvKY7jQ9mrS4ECN-148" target="qTDh2ZvKY7jQ9mrS4ECN-145">
          <mxGeometry relative="1" as="geometry">
            <mxPoint x="935" y="2000" as="targetPoint" />
          </mxGeometry>
        </mxCell>
        <mxCell id="qTDh2ZvKY7jQ9mrS4ECN-148" value=":航班" style="swimlane;whiteSpace=wrap;html=1;startSize=23;" vertex="1" collapsed="1" parent="1">
          <mxGeometry x="860" y="2060" width="150" height="60" as="geometry">
            <mxRectangle x="1640" y="2340" width="120" height="50" as="alternateBounds" />
          </mxGeometry>
        </mxCell>
        <mxCell id="qTDh2ZvKY7jQ9mrS4ECN-149" value=":订单" style="swimlane;whiteSpace=wrap;html=1;startSize=23;" vertex="1" collapsed="1" parent="1">
          <mxGeometry x="860" y="1770" width="150" height="60" as="geometry">
            <mxRectangle x="1640" y="2340" width="120" height="50" as="alternateBounds" />
          </mxGeometry>
        </mxCell>
        <mxCell id="qTDh2ZvKY7jQ9mrS4ECN-153" value="" style="edgeStyle=orthogonalEdgeStyle;rounded=0;orthogonalLoop=1;jettySize=auto;html=1;entryX=0.5;entryY=1;entryDx=0;entryDy=0;endArrow=none;endFill=0;startArrow=classic;startFill=1;" edge="1" parent="1">
          <mxGeometry relative="1" as="geometry">
            <mxPoint x="950" y="1973" as="targetPoint" />
            <mxPoint x="950" y="2060" as="sourcePoint" />
          </mxGeometry>
        </mxCell>
        <mxCell id="qTDh2ZvKY7jQ9mrS4ECN-154" value="" style="edgeStyle=orthogonalEdgeStyle;rounded=0;orthogonalLoop=1;jettySize=auto;html=1;entryX=0.5;entryY=1;entryDx=0;entryDy=0;endArrow=classic;endFill=1;dashed=1;" edge="1" parent="1">
          <mxGeometry relative="1" as="geometry">
            <mxPoint x="920" y="1973" as="targetPoint" />
            <mxPoint x="920" y="2060" as="sourcePoint" />
          </mxGeometry>
        </mxCell>
        <mxCell id="qTDh2ZvKY7jQ9mrS4ECN-157" value="" style="edgeStyle=orthogonalEdgeStyle;rounded=0;orthogonalLoop=1;jettySize=auto;html=1;endArrow=none;endFill=0;startArrow=classic;startFill=1;dashed=1;" edge="1" parent="1">
          <mxGeometry relative="1" as="geometry">
            <mxPoint x="950" y="1830" as="targetPoint" />
            <mxPoint x="950" y="1910" as="sourcePoint" />
          </mxGeometry>
        </mxCell>
        <mxCell id="qTDh2ZvKY7jQ9mrS4ECN-158" value="" style="edgeStyle=orthogonalEdgeStyle;rounded=0;orthogonalLoop=1;jettySize=auto;html=1;endArrow=classic;endFill=1;" edge="1" parent="1">
          <mxGeometry relative="1" as="geometry">
            <mxPoint x="920" y="1830" as="targetPoint" />
            <mxPoint x="920" y="1910" as="sourcePoint" />
          </mxGeometry>
        </mxCell>
        <mxCell id="qTDh2ZvKY7jQ9mrS4ECN-159" value="3：检查航班是否有效" style="text;html=1;align=center;verticalAlign=middle;resizable=0;points=[];autosize=1;strokeColor=none;fillColor=none;" vertex="1" parent="1">
          <mxGeometry x="940" y="2000" width="140" height="30" as="geometry" />
        </mxCell>
        <mxCell id="qTDh2ZvKY7jQ9mrS4ECN-160" value="4：返回检查结果" style="text;html=1;align=center;verticalAlign=middle;resizable=0;points=[];autosize=1;strokeColor=none;fillColor=none;" vertex="1" parent="1">
          <mxGeometry x="835" y="1998" width="110" height="30" as="geometry" />
        </mxCell>
        <mxCell id="qTDh2ZvKY7jQ9mrS4ECN-161" value="5：生成订单" style="text;html=1;align=center;verticalAlign=middle;resizable=0;points=[];autosize=1;strokeColor=none;fillColor=none;" vertex="1" parent="1">
          <mxGeometry x="855" y="1858" width="90" height="30" as="geometry" />
        </mxCell>
        <mxCell id="qTDh2ZvKY7jQ9mrS4ECN-162" value="6：返回生成结果" style="text;html=1;align=center;verticalAlign=middle;resizable=0;points=[];autosize=1;strokeColor=none;fillColor=none;" vertex="1" parent="1">
          <mxGeometry x="945" y="1858" width="110" height="30" as="geometry" />
        </mxCell>
        <mxCell id="qTDh2ZvKY7jQ9mrS4ECN-163" value="8、返回结果" style="text;html=1;align=center;verticalAlign=middle;resizable=0;points=[];autosize=1;strokeColor=none;fillColor=none;" vertex="1" parent="1">
          <mxGeometry x="465" y="1948" width="90" height="30" as="geometry" />
        </mxCell>
      </root>
    </mxGraphModel>
  </diagram>
</mxfile>
